<svg width="145" height="62" viewBox="0 0 145 62" fill="none" xmlns="http://www.w3.org/2000/svg">
<path d="M10.1209 5.6195V22.458L10.0866 22.4238L0.0136719 32.4899V5.62636C0.0136719 2.83934 2.27341 0.572754 5.06727 0.572754C6.4642 0.572754 7.73102 1.13426 8.64177 2.0587C9.55936 2.9626 10.1209 4.22942 10.1209 5.6195Z" fill="#22407C"/>
<path d="M10.0798 33.0376L10.1141 33.0718V45.7948C10.1141 48.5819 7.85431 50.8485 5.0536 50.8485C2.26659 50.8485 0 48.5887 0 45.7948V43.1106L10.0798 33.0376Z" fill="#457ABD"/>
<path d="M48.9886 5.61902V12.2544L38.8745 22.3685V5.61902C38.8745 2.83201 41.1343 0.56543 43.9281 0.56543C45.325 0.56543 46.5919 1.12694 47.5026 2.05138C48.4271 2.96212 48.9886 4.22894 48.9886 5.61902Z" fill="#22407C"/>
<path d="M38.8745 33.0032L48.9886 22.8892V45.8016C48.9886 48.5886 46.7288 50.8552 43.9281 50.8552C41.1411 50.8552 38.8745 48.5954 38.8745 45.8016V33.0032V33.0032Z" fill="#457ABD"/>
<path d="M29.5545 16.1986V31.9278L24.4529 37.0293L19.4404 32.0168V16.2055C19.4404 13.4184 21.7002 11.1519 24.494 11.1519C25.891 11.1519 27.1578 11.7134 28.0685 12.6378C28.993 13.5417 29.5545 14.8154 29.5545 16.1986Z" fill="#22407C"/>
<path d="M24.4529 47.6504L29.5545 42.5488V56.3812C29.5545 59.1682 27.2947 61.4348 24.494 61.4348C21.707 61.4348 19.4404 59.175 19.4404 56.3812V42.631L24.4529 47.6504Z" fill="#457ABD"/>
<path d="M79.7275 11.3643H81.008V23.4915H78.6387V16.6781L75.1464 21.4098H74.2425L70.7296 16.7055V23.4847H68.3809V11.3574H69.6408L74.7013 18.2188L79.7275 11.3643Z" fill="#22407C"/>
<path d="M87.8902 23.6969C86.3426 23.6969 85.1031 23.2586 84.165 22.3753C83.2269 21.4987 82.7612 20.3141 82.7612 18.8213C82.7612 17.3559 83.2337 16.1849 84.1719 15.3016C85.1168 14.4251 86.3494 13.98 87.8833 13.98C89.4172 13.98 90.6498 14.4182 91.5811 15.3016C92.5124 16.1849 92.978 17.3559 92.978 18.8213C92.978 20.3072 92.5124 21.4919 91.5811 22.3753C90.6566 23.2518 89.424 23.6969 87.8902 23.6969ZM87.8902 21.5467C88.6845 21.5467 89.3282 21.3002 89.8212 20.8003C90.3142 20.3004 90.5608 19.643 90.5608 18.8213C90.5608 18.0133 90.3142 17.3627 89.8212 16.8697C89.3282 16.3767 88.6845 16.1302 87.8902 16.1302C87.0821 16.1302 86.4316 16.3767 85.9386 16.8697C85.4455 17.3627 85.199 18.0133 85.199 18.8213C85.199 19.6362 85.4455 20.3004 85.9386 20.8003C86.4316 21.3002 87.0821 21.5467 87.8902 21.5467Z" fill="#22407C"/>
<path d="M94.7378 23.4914V10.5835H97.0865V23.4914H94.7378Z" fill="#22407C"/>
<path d="M101.558 12.6239C101.277 12.9046 100.942 13.0484 100.544 13.0484C100.147 13.0484 99.8049 12.9046 99.5242 12.6239C99.2434 12.3431 99.0996 12.0007 99.0996 11.6036C99.0996 11.2064 99.2434 10.864 99.5242 10.5832C99.8049 10.3025 100.147 10.1587 100.544 10.1587C100.942 10.1587 101.277 10.3025 101.558 10.5832C101.832 10.864 101.976 11.2064 101.976 11.6036C101.976 12.0007 101.839 12.3363 101.558 12.6239ZM99.3324 23.4912V14.192H101.715V23.4912H99.3324Z" fill="#22407C"/>
<path d="M110.44 14.1919H112.946L109.132 23.5938C108.858 24.2854 108.55 24.8538 108.214 25.2989C107.872 25.744 107.509 26.0658 107.125 26.2644C106.742 26.463 106.386 26.5931 106.064 26.6616C105.742 26.73 105.365 26.7643 104.934 26.7643C104.331 26.7643 103.825 26.6958 103.421 26.5588V24.5319C103.921 24.6894 104.366 24.7716 104.763 24.7716C105.728 24.7716 106.427 24.3539 106.858 23.5116L102.681 14.1919H105.304L107.947 20.6835L110.44 14.1919Z" fill="#22407C"/>
<path d="M117.643 23.6969C116.281 23.6969 115.192 23.2586 114.37 22.3753C113.555 21.4988 113.145 20.3141 113.145 18.8213C113.145 17.3491 113.549 16.1644 114.357 15.2879C115.165 14.4046 116.226 13.9663 117.541 13.9663C118.753 13.9663 119.711 14.3087 120.403 14.9866V14.1854H122.718V23.4846H120.437V22.5807C119.828 23.3271 118.897 23.6969 117.643 23.6969ZM118.157 21.5809C119.225 21.5809 119.985 21.1701 120.437 20.3552V17.2737C120.211 16.8971 119.883 16.6095 119.451 16.3972C119.02 16.185 118.568 16.0822 118.102 16.0822C117.342 16.0822 116.726 16.3219 116.26 16.8081C115.795 17.2943 115.562 17.9654 115.562 18.8282C115.562 19.6773 115.795 20.3552 116.26 20.8482C116.733 21.3344 117.363 21.5809 118.157 21.5809Z" fill="#22407C"/>
<path d="M72.9347 43.7193C71.9007 43.7193 71.0036 43.6303 70.2367 43.4522C69.4697 43.2742 68.648 42.9866 67.7715 42.5894L68.6891 40.5146C70.1545 41.2199 71.5309 41.5691 72.8114 41.5691C73.4962 41.5691 74.0166 41.4458 74.3864 41.2062C74.7561 40.9597 74.941 40.6036 74.941 40.1242C74.941 39.6791 74.7424 39.3505 74.3521 39.1245C73.9618 38.9054 73.3044 38.7068 72.3868 38.5356C71.661 38.3849 71.0515 38.2274 70.5585 38.0562C70.0655 37.8851 69.6067 37.6591 69.189 37.3852C68.7713 37.1044 68.4563 36.7552 68.2508 36.3375C68.0454 35.9198 67.9427 35.4199 67.9427 34.8378C67.9427 33.7148 68.3261 32.8246 69.0999 32.1672C69.8737 31.5098 70.9967 31.1812 72.4758 31.1812C74.222 31.1812 75.7422 31.4962 77.0227 32.1193L76.0161 34.1462C74.8452 33.6258 73.6674 33.3656 72.4895 33.3656C71.8322 33.3656 71.3254 33.4888 70.9625 33.7422C70.6064 33.9887 70.4284 34.3106 70.4284 34.694C70.4284 35.1391 70.6475 35.461 71.0926 35.6732C71.5377 35.8855 72.2978 36.1047 73.3729 36.3443C74.0303 36.4813 74.5849 36.6251 75.0232 36.7894C75.4683 36.9469 75.886 37.1592 76.2832 37.4263C76.6803 37.6933 76.9748 38.0357 77.1665 38.4603C77.3583 38.8848 77.4541 39.371 77.4541 39.9394C77.4541 41.1856 77.0707 42.1306 76.3037 42.7675C75.5505 43.3974 74.4206 43.7193 72.9347 43.7193Z" fill="#22407C"/>
<path d="M82.3022 43.6988C81.2819 43.6988 80.5423 43.4523 80.0835 42.9524C79.6247 42.4525 79.3919 41.6719 79.3919 40.6037V36.2759H78.0635V34.1805H79.3919V30.5718H81.7065V34.1805H84.4524V36.2759H81.7065V40.2133C81.7065 40.7475 81.7955 41.1241 81.9735 41.3569C82.1516 41.5829 82.4665 41.6993 82.9322 41.6993C83.4663 41.6993 83.9662 41.5966 84.4318 41.3911V43.4523C83.8635 43.6166 83.1513 43.6988 82.3022 43.6988Z" fill="#22407C"/>
<path d="M89.2185 43.6848C86.8697 43.6848 85.6919 42.3769 85.6919 39.7474V34.1802H88.0407V39.1516C88.0407 40.7608 88.6638 41.5688 89.9169 41.5688C90.766 41.5688 91.4919 41.2128 92.0808 40.4938V34.1733H94.4296V43.4725H92.1972V42.5207C91.4029 43.2945 90.41 43.6848 89.2185 43.6848Z" fill="#22407C"/>
<path d="M100.524 43.6851C99.1612 43.6851 98.0724 43.2469 97.2506 42.3635C96.4358 41.487 96.0249 40.3024 96.0249 38.8096C96.0249 37.3373 96.4289 36.1527 97.2369 35.2761C98.045 34.3928 99.1064 33.9545 100.421 33.9545C101.633 33.9545 102.592 34.2969 103.283 34.9749V30.5649H105.598V43.4728H103.318V42.569C102.708 43.3154 101.777 43.6851 100.524 43.6851ZM101.037 41.5692C102.106 41.5692 102.866 41.1583 103.318 40.3435V37.262C103.092 36.8854 102.763 36.5978 102.332 36.3855C101.9 36.1732 101.448 36.0705 100.983 36.0705C100.223 36.0705 99.6062 36.3102 99.1406 36.7963C98.675 37.2825 98.4421 37.9536 98.4421 38.8164C98.4421 39.6655 98.675 40.3435 99.1406 40.8365C99.6131 41.3227 100.243 41.5692 101.037 41.5692Z" fill="#22407C"/>
<path d="M110.008 32.6126C109.727 32.8934 109.392 33.0372 108.995 33.0372C108.598 33.0372 108.255 32.8934 107.974 32.6126C107.694 32.3319 107.55 31.9895 107.55 31.5923C107.55 31.1952 107.694 30.8528 107.974 30.572C108.255 30.2913 108.598 30.1475 108.995 30.1475C109.392 30.1475 109.727 30.2913 110.008 30.572C110.282 30.8528 110.426 31.1952 110.426 31.5923C110.426 31.9895 110.282 32.3319 110.008 32.6126ZM107.783 43.4799V34.1808H110.166V43.4799H107.783Z" fill="#22407C"/>
<path d="M118.889 34.1807H121.396L117.581 43.5825C117.307 44.2742 116.999 44.8425 116.664 45.2876C116.321 45.7327 115.958 46.0546 115.575 46.2532C115.192 46.4517 114.835 46.5818 114.514 46.6503C114.192 46.7188 113.815 46.753 113.384 46.753C112.781 46.753 112.274 46.6846 111.87 46.5476V44.5207C112.37 44.6782 112.815 44.7604 113.213 44.7604C114.178 44.7604 114.877 44.3426 115.308 43.5004L111.131 34.1807H113.754L116.397 40.6723L118.889 34.1807Z" fill="#22407C"/>
<path d="M126.093 43.6852C124.73 43.6852 123.642 43.2469 122.82 42.3636C122.005 41.4871 121.594 40.3024 121.594 38.8096C121.594 37.3373 121.998 36.1527 122.806 35.2762C123.614 34.3928 124.676 33.9546 125.99 33.9546C127.202 33.9546 128.161 34.297 128.853 34.9749V34.1737H131.167V43.4729H128.887V42.569C128.271 43.3154 127.339 43.6852 126.093 43.6852ZM126.6 41.5692C127.668 41.5692 128.428 41.1584 128.88 40.3435V37.262C128.654 36.8854 128.326 36.5978 127.894 36.3855C127.463 36.1732 127.011 36.0705 126.545 36.0705C125.785 36.0705 125.169 36.3102 124.703 36.7964C124.237 37.2826 124.005 37.9536 124.005 38.8165C124.005 39.6656 124.237 40.3435 124.703 40.8365C125.176 41.3227 125.806 41.5692 126.6 41.5692Z" fill="#22407C"/>
<path d="M136.721 43.7193C135.256 43.7193 133.948 43.4454 132.791 42.9044L133.537 41.0487C134.455 41.6034 135.495 41.8841 136.653 41.8841C137.728 41.8841 138.269 41.5554 138.269 40.8981C138.269 40.6242 138.125 40.4187 137.844 40.2681C137.563 40.1174 137.016 39.9531 136.208 39.775C135.084 39.5285 134.249 39.1861 133.715 38.7547C133.174 38.3233 132.907 37.6933 132.907 36.8648C132.907 35.9335 133.236 35.2213 133.9 34.7351C134.564 34.249 135.468 34.0024 136.618 34.0024C137.796 34.0024 139.015 34.249 140.261 34.7351L139.494 36.6114C138.597 36.1321 137.632 35.8992 136.598 35.8992C135.687 35.8992 135.235 36.1663 135.235 36.7004C135.235 36.9812 135.365 37.2003 135.639 37.351C135.906 37.5016 136.44 37.666 137.248 37.8645C138.419 38.1453 139.275 38.5014 139.83 38.9122C140.378 39.3299 140.659 39.9188 140.659 40.6926C140.659 42.699 139.344 43.7193 136.721 43.7193Z" fill="#22407C"/>
<path d="M144.582 32.6126C144.302 32.8934 143.966 33.0372 143.569 33.0372C143.172 33.0372 142.829 32.8934 142.549 32.6126C142.268 32.3319 142.124 31.9895 142.124 31.5923C142.124 31.1952 142.268 30.8528 142.549 30.572C142.829 30.2913 143.172 30.1475 143.569 30.1475C143.966 30.1475 144.302 30.2913 144.582 30.572C144.856 30.8528 145 31.1952 145 31.5923C145 31.9895 144.863 32.3319 144.582 32.6126ZM142.357 43.4799V34.1808H144.74V43.4799H142.357Z" fill="#22407C"/>
</svg>
