<svg width="145" height="61" viewBox="0 0 145 61" fill="none" xmlns="http://www.w3.org/2000/svg">
<path d="M10.1209 5.05358V21.8921L10.0866 21.8578L0.0136719 31.9239V5.06044C0.0136719 2.27343 2.27341 0.00683594 5.06727 0.00683594C6.4642 0.00683594 7.73102 0.568346 8.64177 1.49278C9.55936 2.39668 10.1209 3.6635 10.1209 5.05358Z" fill="white"/>
<path d="M10.0798 32.4722L10.1141 32.5064V45.2294C10.1141 48.0164 7.85431 50.283 5.0536 50.283C2.26659 50.283 0 48.0233 0 45.2294V42.5451L10.0798 32.4722Z" fill="white"/>
<path d="M48.9886 5.05359V11.689L38.8745 21.8031V5.05359C38.8745 2.26658 41.1343 0 43.9281 0C45.325 0 46.5919 0.56151 47.5026 1.48595C48.4271 2.39669 48.9886 3.66351 48.9886 5.05359Z" fill="white"/>
<path d="M38.8745 32.4378L48.9886 22.3237V45.2361C48.9886 48.0231 46.7288 50.2897 43.9281 50.2897C41.1411 50.2897 38.8745 48.03 38.8745 45.2361V32.4378V32.4378Z" fill="white"/>
<path d="M29.5545 15.6334V31.3626L24.4529 36.4641L19.4404 31.4516V15.6403C19.4404 12.8533 21.7002 10.5867 24.494 10.5867C25.891 10.5867 27.1578 11.1482 28.0685 12.0726C28.993 12.9765 29.5545 14.2502 29.5545 15.6334Z" fill="white"/>
<path d="M24.4529 47.0849L29.5545 41.9834V55.8157C29.5545 58.6028 27.2947 60.8693 24.494 60.8693C21.707 60.8693 19.4404 58.6096 19.4404 55.8157V42.0656L24.4529 47.0849Z" fill="white"/>
<path d="M79.7275 10.7991H81.008V22.9264H78.6387V16.1129L75.1464 20.8446H74.2425L70.7296 16.1403V22.9195H68.3809V10.7922H69.6408L74.7013 17.6536L79.7275 10.7991Z" fill="white"/>
<path d="M87.8902 23.1317C86.3426 23.1317 85.1031 22.6934 84.165 21.8101C83.2269 20.9336 82.7612 19.7489 82.7612 18.2561C82.7612 16.7907 83.2337 15.6197 84.1719 14.7364C85.1168 13.8599 86.3494 13.4148 87.8833 13.4148C89.4172 13.4148 90.6498 13.853 91.5811 14.7364C92.5124 15.6197 92.978 16.7907 92.978 18.2561C92.978 19.7421 92.5124 20.9267 91.5811 21.8101C90.6566 22.6866 89.424 23.1317 87.8902 23.1317ZM87.8902 20.9815C88.6845 20.9815 89.3282 20.735 89.8212 20.2351C90.3142 19.7352 90.5608 19.0778 90.5608 18.2561C90.5608 17.4481 90.3142 16.7976 89.8212 16.3045C89.3282 15.8115 88.6845 15.565 87.8902 15.565C87.0821 15.565 86.4316 15.8115 85.9386 16.3045C85.4455 16.7976 85.199 17.4481 85.199 18.2561C85.199 19.071 85.4455 19.7352 85.9386 20.2351C86.4316 20.735 87.0821 20.9815 87.8902 20.9815Z" fill="white"/>
<path d="M94.7378 22.926V10.0181H97.0865V22.926H94.7378Z" fill="white"/>
<path d="M101.558 12.0587C101.277 12.3394 100.942 12.4832 100.544 12.4832C100.147 12.4832 99.8049 12.3394 99.5242 12.0587C99.2434 11.7779 99.0996 11.4355 99.0996 11.0384C99.0996 10.6412 99.2434 10.2988 99.5242 10.0181C99.8049 9.7373 100.147 9.59351 100.544 9.59351C100.942 9.59351 101.277 9.7373 101.558 10.0181C101.832 10.2988 101.976 10.6412 101.976 11.0384C101.976 11.4355 101.839 11.7711 101.558 12.0587ZM99.3324 22.926V13.6268H101.715V22.926H99.3324Z" fill="white"/>
<path d="M110.44 13.627H112.946L109.132 23.0288C108.858 23.7205 108.55 24.2888 108.214 24.7339C107.872 25.179 107.509 25.5009 107.125 25.6994C106.742 25.898 106.386 26.0281 106.064 26.0966C105.742 26.1651 105.365 26.1993 104.934 26.1993C104.331 26.1993 103.825 26.1308 103.421 25.9939V23.967C103.921 24.1245 104.366 24.2066 104.763 24.2066C105.728 24.2066 106.427 23.7889 106.858 22.9467L102.681 13.627H105.304L107.947 20.1186L110.44 13.627Z" fill="white"/>
<path d="M117.643 23.1319C116.281 23.1319 115.192 22.6937 114.37 21.8103C113.555 20.9338 113.145 19.7492 113.145 18.2564C113.145 16.7841 113.549 15.5995 114.357 14.723C115.165 13.8396 116.226 13.4014 117.541 13.4014C118.753 13.4014 119.711 13.7438 120.403 14.4217V13.6205H122.718V22.9197H120.437V22.0158C119.828 22.7622 118.897 23.1319 117.643 23.1319ZM118.157 21.016C119.225 21.016 119.985 20.6051 120.437 19.7903V16.7088C120.211 16.3322 119.883 16.0446 119.451 15.8323C119.02 15.62 118.568 15.5173 118.102 15.5173C117.342 15.5173 116.726 15.757 116.26 16.2432C115.795 16.7294 115.562 17.4004 115.562 18.2632C115.562 19.1124 115.795 19.7903 116.26 20.2833C116.733 20.7695 117.363 21.016 118.157 21.016Z" fill="white"/>
<path d="M72.9347 43.1543C71.9007 43.1543 71.0036 43.0653 70.2367 42.8873C69.4697 42.7092 68.648 42.4216 67.7715 42.0245L68.6891 39.9496C70.1545 40.6549 71.5309 41.0042 72.8114 41.0042C73.4962 41.0042 74.0166 40.8809 74.3864 40.6412C74.7561 40.3947 74.941 40.0386 74.941 39.5593C74.941 39.1142 74.7424 38.7855 74.3521 38.5595C73.9618 38.3404 73.3044 38.1418 72.3868 37.9706C71.661 37.82 71.0515 37.6625 70.5585 37.4913C70.0655 37.3201 69.6067 37.0941 69.189 36.8202C68.7713 36.5395 68.4563 36.1902 68.2508 35.7725C68.0454 35.3548 67.9427 34.8549 67.9427 34.2729C67.9427 33.1499 68.3261 32.2597 69.0999 31.6023C69.8737 30.9449 70.9967 30.6162 72.4758 30.6162C74.222 30.6162 75.7422 30.9312 77.0227 31.5544L76.0161 33.5813C74.8452 33.0608 73.6674 32.8006 72.4895 32.8006C71.8322 32.8006 71.3254 32.9239 70.9625 33.1773C70.6064 33.4238 70.4284 33.7456 70.4284 34.1291C70.4284 34.5742 70.6475 34.896 71.0926 35.1083C71.5377 35.3206 72.2978 35.5397 73.3729 35.7794C74.0303 35.9163 74.5849 36.0601 75.0232 36.2245C75.4683 36.382 75.886 36.5943 76.2832 36.8613C76.6803 37.1284 76.9748 37.4708 77.1665 37.8953C77.3583 38.3199 77.4541 38.8061 77.4541 39.3744C77.4541 40.6207 77.0707 41.5657 76.3037 42.2025C75.5505 42.8325 74.4206 43.1543 72.9347 43.1543Z" fill="white"/>
<path d="M82.3022 43.1336C81.2819 43.1336 80.5423 42.8871 80.0835 42.3872C79.6247 41.8873 79.3919 41.1067 79.3919 40.0385V35.7107H78.0635V33.6153H79.3919V30.0066H81.7065V33.6153H84.4524V35.7107H81.7065V39.6482C81.7065 40.1823 81.7955 40.5589 81.9735 40.7917C82.1516 41.0177 82.4665 41.1341 82.9322 41.1341C83.4663 41.1341 83.9662 41.0314 84.4318 40.826V42.8871C83.8635 43.0515 83.1513 43.1336 82.3022 43.1336Z" fill="white"/>
<path d="M89.2185 43.1198C86.8697 43.1198 85.6919 41.8119 85.6919 39.1824V33.6152H88.0407V38.5867C88.0407 40.1959 88.6638 41.0039 89.9169 41.0039C90.766 41.0039 91.4919 40.6478 92.0808 39.9288V33.6084H94.4296V42.9076H92.1972V41.9557C91.4029 42.7295 90.41 43.1198 89.2185 43.1198Z" fill="white"/>
<path d="M100.524 43.1199C99.1612 43.1199 98.0724 42.6817 97.2506 41.7983C96.4358 40.9218 96.0249 39.7372 96.0249 38.2444C96.0249 36.7721 96.4289 35.5875 97.2369 34.711C98.045 33.8276 99.1064 33.3894 100.421 33.3894C101.633 33.3894 102.592 33.7318 103.283 34.4097V29.9998H105.598V42.9077H103.318V42.0038C102.708 42.7502 101.777 43.1199 100.524 43.1199ZM101.037 41.004C102.106 41.004 102.866 40.5931 103.318 39.7783V36.6968C103.092 36.3202 102.763 36.0326 102.332 35.8203C101.9 35.608 101.448 35.5053 100.983 35.5053C100.223 35.5053 99.6062 35.745 99.1406 36.2312C98.675 36.7173 98.4421 37.3884 98.4421 38.2512C98.4421 39.1003 98.675 39.7783 99.1406 40.2713C99.6131 40.7575 100.243 41.004 101.037 41.004Z" fill="white"/>
<path d="M110.008 32.0472C109.727 32.328 109.392 32.4718 108.995 32.4718C108.598 32.4718 108.255 32.328 107.974 32.0472C107.694 31.7664 107.55 31.4241 107.55 31.0269C107.55 30.6297 107.694 30.2873 107.974 30.0066C108.255 29.7258 108.598 29.582 108.995 29.582C109.392 29.582 109.727 29.7258 110.008 30.0066C110.282 30.2873 110.426 30.6297 110.426 31.0269C110.426 31.4241 110.282 31.7664 110.008 32.0472ZM107.783 42.9145V33.6153H110.166V42.9145H107.783Z" fill="white"/>
<path d="M118.889 33.6157H121.396L117.581 43.0176C117.307 43.7092 116.999 44.2776 116.664 44.7227C116.321 45.1678 115.958 45.4896 115.575 45.6882C115.192 45.8868 114.835 46.0169 114.514 46.0854C114.192 46.1538 113.815 46.1881 113.384 46.1881C112.781 46.1881 112.274 46.1196 111.87 45.9827V43.9557C112.37 44.1132 112.815 44.1954 113.213 44.1954C114.178 44.1954 114.877 43.7777 115.308 42.9354L111.131 33.6157H113.754L116.397 40.1073L118.889 33.6157Z" fill="white"/>
<path d="M126.093 43.1202C124.73 43.1202 123.642 42.682 122.82 41.7986C122.005 40.9221 121.594 39.7375 121.594 38.2447C121.594 36.7724 121.998 35.5878 122.806 34.7112C123.614 33.8279 124.676 33.3896 125.99 33.3896C127.202 33.3896 128.161 33.732 128.853 34.41V33.6088H131.167V42.9079H128.887V42.0041C128.271 42.7505 127.339 43.1202 126.093 43.1202ZM126.6 41.0043C127.668 41.0043 128.428 40.5934 128.88 39.7786V36.6971C128.654 36.3205 128.326 36.0329 127.894 35.8206C127.463 35.6083 127.011 35.5056 126.545 35.5056C125.785 35.5056 125.169 35.7453 124.703 36.2314C124.237 36.7176 124.005 37.3887 124.005 38.2515C124.005 39.1006 124.237 39.7786 124.703 40.2716C125.176 40.7578 125.806 41.0043 126.6 41.0043Z" fill="white"/>
<path d="M136.721 43.1544C135.256 43.1544 133.948 42.8805 132.791 42.3395L133.537 40.4838C134.455 41.0384 135.495 41.3192 136.653 41.3192C137.728 41.3192 138.269 40.9905 138.269 40.3331C138.269 40.0592 138.125 39.8538 137.844 39.7031C137.563 39.5525 137.016 39.3881 136.208 39.2101C135.084 38.9636 134.249 38.6212 133.715 38.1898C133.174 37.7584 132.907 37.1284 132.907 36.2998C132.907 35.3685 133.236 34.6564 133.9 34.1702C134.564 33.684 135.468 33.4375 136.618 33.4375C137.796 33.4375 139.015 33.684 140.261 34.1702L139.494 36.0465C138.597 35.5671 137.632 35.3343 136.598 35.3343C135.687 35.3343 135.235 35.6014 135.235 36.1355C135.235 36.4162 135.365 36.6354 135.639 36.786C135.906 36.9367 136.44 37.101 137.248 37.2996C138.419 37.5804 139.275 37.9364 139.83 38.3473C140.378 38.765 140.659 39.3539 140.659 40.1277C140.659 42.1341 139.344 43.1544 136.721 43.1544Z" fill="white"/>
<path d="M144.582 32.0472C144.302 32.328 143.966 32.4718 143.569 32.4718C143.172 32.4718 142.829 32.328 142.549 32.0472C142.268 31.7664 142.124 31.4241 142.124 31.0269C142.124 30.6297 142.268 30.2873 142.549 30.0066C142.829 29.7258 143.172 29.582 143.569 29.582C143.966 29.582 144.302 29.7258 144.582 30.0066C144.856 30.2873 145 30.6297 145 31.0269C145 31.4241 144.863 31.7664 144.582 32.0472ZM142.357 42.9145V33.6153H144.74V42.9145H142.357Z" fill="white"/>
</svg>
