<svg width="28" height="23" viewBox="0 0 28 23" fill="none" xmlns="http://www.w3.org/2000/svg">
<path d="M25.9961 12.7046C26.8245 12.7046 27.4961 12.033 27.4961 11.2046C27.4961 10.3762 26.8245 9.70459 25.9961 9.70459V12.7046ZM0.935434 10.1439C0.349647 10.7297 0.349647 11.6795 0.935434 12.2653L10.4814 21.8112C11.0672 22.397 12.0169 22.397 12.6027 21.8112C13.1885 21.2254 13.1885 20.2757 12.6027 19.6899L4.11741 11.2046L12.6027 2.71931C13.1885 2.13352 13.1885 1.18377 12.6027 0.597988C12.0169 0.0122017 11.0672 0.0122017 10.4814 0.597988L0.935434 10.1439ZM25.9961 9.70459L1.99609 9.70459V12.7046L25.9961 12.7046V9.70459Z" fill="#0075FF"/>
</svg>
